<?xml version="1.0" standalone="no"?>
<!DOCTYPE svg PUBLIC "-//W3C//DTD SVG 20010904//EN"
 "http://www.w3.org/TR/2001/REC-SVG-20010904/DTD/svg10.dtd">
<svg version="1.0" xmlns="http://www.w3.org/2000/svg"
 width="2501.000000pt" height="2501.000000pt" viewBox="0 0 2501.000000 2501.000000"
 preserveAspectRatio="xMidYMid meet">
<metadata>
Created by potrace 1.14, written by Peter Selinger 2001-2017
</metadata>
<g transform="translate(0.000000,2501.000000) scale(0.100000,-0.100000)"
fill="#000000" stroke="none">
<path d="M12095 19093 c-747 -38 -1452 -189 -2051 -439 -612 -255 -1136 -605
-1604 -1074 -996 -996 -1561 -2250 -1719 -3820 -11 -107 -23 -251 -26 -320 -3
-69 -8 -139 -11 -156 l-4 -31 -578 -6 c-653 -7 -891 -18 -1437 -68 -1657 -151
-3223 -594 -4240 -1200 -55 -33 -111 -69 -125 -80 l-25 -20 40 17 c964 396
2257 704 3525 838 606 64 937 81 1640 81 555 0 844 -9 1120 -33 l75 -7 6 -250
c39 -1498 444 -2777 1203 -3793 419 -562 913 -1012 1486 -1357 506 -303 1090
-527 1710 -654 748 -153 1639 -179 2448 -71 1444 193 2643 849 3497 1915 519
647 884 1390 1104 2245 l48 185 224 7 c2084 62 4034 608 5516 1544 311 196
718 504 828 624 l30 33 -35 -20 c-102 -60 -304 -166 -450 -236 -1287 -617
-2804 -1041 -4330 -1211 -482 -53 -818 -75 -1298 -83 l-373 -6 5 24 c11 50 36
302 50 509 40 588 27 1160 -39 1723 -159 1346 -630 2465 -1419 3372 -195 224
-509 521 -741 702 -474 369 -1063 672 -1655 851 -469 142 -964 228 -1520 262
-148 9 -721 11 -875 3z m800 -1623 c812 -59 1488 -292 2022 -696 744 -564
1254 -1457 1472 -2584 135 -696 159 -1550 65 -2310 -9 -69 -19 -128 -23 -133
-15 -16 -848 79 -1294 148 -700 109 -1203 214 -2377 499 -1739 421 -2605 573
-4174 732 l-68 7 6 121 c85 1530 602 2702 1524 3450 557 452 1286 716 2127
769 125 8 594 6 720 -3z m-4154 -4975 c702 -128 1247 -244 2949 -624 2070
-462 3298 -682 4400 -787 102 -10 188 -20 192 -24 4 -3 -12 -71 -36 -150 -91
-297 -217 -598 -354 -845 -554 -999 -1410 -1601 -2544 -1789 -303 -51 -435
-60 -833 -60 -397 0 -525 9 -825 60 -1602 270 -2695 1411 -3045 3179 -56 284
-98 614 -110 875 -3 69 -8 142 -10 163 -4 26 -1 37 8 37 7 0 101 -16 208 -35z"/>
</g>
</svg>
